<svg id="fce36580-5d96-418e-aff0-3dd8da7b8cab" data-name="Layer 1" xmlns="http://www.w3.org/2000/svg" width="150.28" height="60.75" viewBox="0 0 150.28 60.75">
  <defs>
    <style>
      .a042a670-a516-4fd2-b55c-371e4e6166b6, .b0c225c8-b981-4e3e-b6d8-8f6e29ca68d6, .b31b5690-76b6-43df-9340-411bca4d3987 {
        fill: #fad38a;
      }

      .b31b5690-76b6-43df-9340-411bca4d3987 {
        font-size: 24.51px;
        font-family: ProximaNova-Black, Proxima Nova;
        font-weight: 800;
        letter-spacing: 0.12em;
      }

      .a042a670-a516-4fd2-b55c-371e4e6166b6 {
        font-size: 11.9px;
        font-family: ProximaNova-Extrabld, Proxima Nova;
      }

      .b5ce5a8b-8503-4a48-bbc8-530df323e671 {
        letter-spacing: -0.02em;
      }

      .aa4ce173-a7c5-4238-afab-b82205ed6274 {
        letter-spacing: -0.01em;
      }
    </style>
  </defs>
  <g>
    <g>
      <g>
        <path class="b0c225c8-b981-4e3e-b6d8-8f6e29ca68d6" d="M40,7.74l1,1.24a11.58,11.58,0,0,1,4.25-.31L43,11.16a.82.82,0,0,0,.73,1L47,9l.83.62-3.32,3.73a.71.71,0,0,0,.73.83l3.63-3.73a1.11,1.11,0,0,1,.82,1L46.24,15.2s.2.72.82.83l3.11-3.32.31-.1s.83,8.39,1.87,11.08A9.4,9.4,0,0,0,56.18,29s.83.31.73-.83c0,0-3.11-2.18-3.84-9.74,0,0-.62-9-4.76-10.67A14.92,14.92,0,0,0,40,7.74Z" transform="translate(-4.86 -4.62)"/>
        <path class="b0c225c8-b981-4e3e-b6d8-8f6e29ca68d6" d="M53,13.79l.29,1.59a11.55,11.55,0,0,1,3.84,1.84l-3.21,1A.82.82,0,0,0,54,19.51l4.39-1.2.41,1-4.73,1.6a.71.71,0,0,0,.22,1.08l5-1.44a1.11,1.11,0,0,1,.2,1.31l-4.82,1.54A1.2,1.2,0,0,0,55,24.48l4.34-1.34.33.07s-3.45,7.7-3.88,10.55a9.38,9.38,0,0,0,.71,6.49s.56.68,1-.36c0,0-1.62-3.43,1.5-10.36,0,0,3.93-8.14,1.15-11.63A14.89,14.89,0,0,0,53,13.79Z" transform="translate(-4.86 -4.62)"/>
      </g>
      <g>
        <path class="b0c225c8-b981-4e3e-b6d8-8f6e29ca68d6" d="M61.36,25.6l-.56,1.51a11.51,11.51,0,0,1,2.38,3.54l-3.29-.75a.82.82,0,0,0-.54,1.15l4.38,1.19-.13,1-4.88-1a.71.71,0,0,0-.36,1l5,1.3a1.1,1.1,0,0,1-.49,1.23L58,34.7a1.22,1.22,0,0,0-.31,1.13l4.43,1.05.24.22s-6.87,4.88-8.7,7.12a9.41,9.41,0,0,0-2.68,6s.14.88,1.08.22c0,0,.35-3.78,6.55-8.16,0,0,7.52-5,6.9-9.44A14.9,14.9,0,0,0,61.36,25.6Z" transform="translate(-4.86 -4.62)"/>
        <path class="b0c225c8-b981-4e3e-b6d8-8f6e29ca68d6" d="M62.55,39.86l-1.24,1a11.54,11.54,0,0,1,.31,4.25l-2.49-2.28a.81.81,0,0,0-1,.73l3.21,3.21-.62.82L57,44.32a.71.71,0,0,0-.83.73l3.73,3.62a1.09,1.09,0,0,1-1,.83L55.1,46.08s-.73.21-.83.83L57.59,50l.1.31s-8.39.84-11.08,1.88A9.4,9.4,0,0,0,41.32,56s-.31.83.83.73c0,0,2.18-3.11,9.74-3.84,0,0,9-.63,10.67-4.78A15,15,0,0,0,62.55,39.86Z" transform="translate(-4.86 -4.62)"/>
      </g>
    </g>
    <g>
      <g>
        <path class="b0c225c8-b981-4e3e-b6d8-8f6e29ca68d6" d="M56.59,52.65,55,53a11.59,11.59,0,0,1-1.8,3.86l-1.06-3.2a.83.83,0,0,0-1.26.13l1.24,4.37-.94.42-1.65-4.71a.71.71,0,0,0-1.08.23L50,59a1.1,1.1,0,0,1-1.31.22L47,54.45a1.19,1.19,0,0,0-1.12.32L47.3,59.1l-.06.32s-7.74-3.36-10.59-3.76c0,0-3.63-1-6.49.77,0,0-.67.57.38,1,0,0,3.41-1.66,10.37,1.39,0,0,8.18,3.85,11.64,1A14.9,14.9,0,0,0,56.59,52.65Z" transform="translate(-4.86 -4.62)"/>
        <path class="b0c225c8-b981-4e3e-b6d8-8f6e29ca68d6" d="M45,61l-1.53-.53A11.41,11.41,0,0,1,40,63l.67-3.3a.82.82,0,0,0-1.16-.51L38.4,63.57l-1-.11.91-4.9a.71.71,0,0,0-1.05-.34l-1.18,5.07a1.1,1.1,0,0,1-1.24-.46l1-5a1.22,1.22,0,0,0-1.14-.28l-1,4.45-.21.24s-5-6.75-7.33-8.52a9.39,9.39,0,0,0-6-2.54s-.87.16-.2,1.09c0,0,3.79.25,8.32,6.35,0,0,5.2,7.39,9.6,6.67A14.93,14.93,0,0,0,45,61Z" transform="translate(-4.86 -4.62)"/>
      </g>
      <g>
        <path class="b0c225c8-b981-4e3e-b6d8-8f6e29ca68d6" d="M30.6,62.6l-1.05-1.23a11.47,11.47,0,0,1-4.25.36l2.26-2.51a.83.83,0,0,0-.74-1l-3.18,3.25-.83-.61,3.27-3.77a.71.71,0,0,0-.73-.82L21.76,60a1.11,1.11,0,0,1-.84-1l3.38-3.77s-.22-.72-.84-.82l-3.07,3.35-.31.11s-.92-8.38-2-11.06a9.37,9.37,0,0,0-3.89-5.24s-.84-.31-.72.83c0,0,3.13,2.14,3.94,9.7,0,0,.73,9,4.89,10.62A14.92,14.92,0,0,0,30.6,62.6Z" transform="translate(-4.86 -4.62)"/>
        <path class="b0c225c8-b981-4e3e-b6d8-8f6e29ca68d6" d="M17.56,56.7l-.3-1.59a11.69,11.69,0,0,1-3.87-1.79l3.2-1.07A.82.82,0,0,0,16.46,51l-4.37,1.25-.42-1,4.71-1.65a.69.69,0,0,0-.23-1.07l-5,1.49a1.1,1.1,0,0,1-.22-1.3l4.8-1.6A1.21,1.21,0,0,0,15.43,46L11.1,47.42l-.32-.06s3.35-7.74,3.76-10.6a9.42,9.42,0,0,0-.79-6.48s-.57-.68-1,.37c0,0,1.66,3.41-1.39,10.38,0,0-3.83,8.18-1,11.64A15,15,0,0,0,17.56,56.7Z" transform="translate(-4.86 -4.62)"/>
      </g>
    </g>
    <g>
      <g>
        <path class="b0c225c8-b981-4e3e-b6d8-8f6e29ca68d6" d="M9.23,45l.52-1.53A11.57,11.57,0,0,1,7.28,40l3.31.65a.82.82,0,0,0,.5-1.16L6.68,38.39l.1-1,4.91.89a.71.71,0,0,0,.33-1L6.94,36.05A1.11,1.11,0,0,1,7.4,34.8l5,1a1.2,1.2,0,0,0,.28-1.13l-4.45-.93-.25-.21s6.73-5.08,8.49-7.37a9.36,9.36,0,0,0,2.51-6s-.16-.87-1.08-.19c0,0-.24,3.78-6.32,8.34,0,0-7.37,5.23-6.63,9.63A15,15,0,0,0,9.23,45Z" transform="translate(-4.86 -4.62)"/>
        <path class="b0c225c8-b981-4e3e-b6d8-8f6e29ca68d6" d="M7.64,30.74l1.21-1.07a11.6,11.6,0,0,1-.43-4.24L11,27.64a.82.82,0,0,0,1-.76l-3.3-3.12.6-.84,3.82,3.2a.71.71,0,0,0,.81-.74l-3.83-3.52a1.1,1.1,0,0,1,1-.86l3.83,3.31a1.21,1.21,0,0,0,.8-.85l-3.4-3-.12-.31s8.37-1.07,11-2.19a9.41,9.41,0,0,0,5.17-4s.29-.84-.85-.7c0,0-2.08,3.17-9.62,4.11,0,0-9,.88-10.53,5.07A14.93,14.93,0,0,0,7.64,30.74Z" transform="translate(-4.86 -4.62)"/>
      </g>
      <g>
        <path class="b0c225c8-b981-4e3e-b6d8-8f6e29ca68d6" d="M13.36,17.45,15,17.14a11.43,11.43,0,0,1,1.77-3.87l1.08,3.19a.82.82,0,0,0,1.26-.13L17.8,12l.94-.43,1.67,4.7A.71.71,0,0,0,21.49,16L20,11a1.1,1.1,0,0,1,1.3-.23l1.62,4.8A1.2,1.2,0,0,0,24,15.27L22.61,11l.06-.32S30.42,14,33.28,14.34a9.41,9.41,0,0,0,6.48-.81s.67-.57-.37-1c0,0-3.41,1.67-10.39-1.34,0,0-8.19-3.81-11.64-1A14.94,14.94,0,0,0,13.36,17.45Z" transform="translate(-4.86 -4.62)"/>
        <path class="b0c225c8-b981-4e3e-b6d8-8f6e29ca68d6" d="M24.92,9l1.53.52A11.4,11.4,0,0,1,29.91,7l-.65,3.31a.83.83,0,0,0,1.16.51l1.07-4.42,1,.1-.88,4.91a.71.71,0,0,0,1,.33L33.84,6.7a1.1,1.1,0,0,1,1.24.46l-1,5a1.22,1.22,0,0,0,1.14.28L36.18,8l.21-.25s5.08,6.72,7.37,8.48a9.4,9.4,0,0,0,6,2.51s.87-.17.18-1.08c0,0-3.78-.24-8.35-6.31,0,0-5.23-7.37-9.63-6.62A14.91,14.91,0,0,0,24.92,9Z" transform="translate(-4.86 -4.62)"/>
      </g>
    </g>
  </g>
  <g>
    <text class="b31b5690-76b6-43df-9340-411bca4d3987" transform="translate(65.98 31.64)">KRAM</text>
    <text class="a042a670-a516-4fd2-b55c-371e4e6166b6" transform="translate(67.14 46.03)">INVE<tspan class="b5ce5a8b-8503-4a48-bbc8-530df323e671" x="27.58" y="0">S</tspan><tspan x="34.59" y="0">TMEN</tspan><tspan class="aa4ce173-a7c5-4238-afab-b82205ed6274" x="67.85" y="0">T</tspan><tspan x="74.77" y="0">S</tspan></text>
  </g>
</svg>
